<?xml version="1.0" encoding="utf-8"?>
<!-- Generator: Adobe Illustrator 21.0.0, SVG Export Plug-In . SVG Version: 6.00 Build 0)  -->
<svg version="1.1" id="Layer_1" xmlns="http://www.w3.org/2000/svg" xmlns:xlink="http://www.w3.org/1999/xlink" x="0px" y="0px"
	 viewBox="0 0 20.4 20" style="enable-background:new 0 0 20.4 20;" xml:space="preserve">
<style type="text/css">
	.st0{fill:#4394D0;}
	.st1{fill:#91C5EA;}
</style>
<g>
	<path class="st0" d="M15.3,0.8c1.4,1.6,3.3,4.1,3.4,6.6c0.2,3.5-2.2,7.4-7,7.8C7.5,15.5,5,12.3,4.9,9.9c-0.4-4,2.5-5.8,5.1-5.7
		c4.1,0.1,5.3,4.4,5.5,5.9C17.2,7,15.4,0,8.7,0C5.2,0-0.1,3.1,0,9.8C0.2,16.7,5.4,20,10.3,20c5.6,0,10-4.6,10.1-9.7
		C20.5,4.9,17.4,2.2,15.3,0.8z"/>
	<path class="st1" d="M8.9,18.5c-9.8-1-9-10.6-7.4-12.9C1,8.6,0.8,15.4,8.2,17c4.9,1,10.2-2,11.4-7.3C19,14.4,13.6,18.9,8.9,18.5z
		 M8.2,2.2C4.4,3,2.4,6.6,4,10.5C2.1,8.9,2,6,2,4.8c0.6-1.4,3-4.2,6.9-4.3c3.4,0,5.3,1.8,6,5C13,1.9,9.5,1.9,8.2,2.2z"/>
</g>
</svg>
