<?xml version="1.0" encoding="UTF-8" standalone="no"?><!-- Generator: Gravit.io --><svg xmlns="http://www.w3.org/2000/svg" xmlns:xlink="http://www.w3.org/1999/xlink" style="isolation:isolate" viewBox="0 0 20 20" width="20pt" height="20pt"><defs><clipPath id="_clipPath_aUlLvHPTVHAtBrLHy4L8G482rjVUXbcn"><rect width="20" height="20"/></clipPath></defs><g clip-path="url(#_clipPath_aUlLvHPTVHAtBrLHy4L8G482rjVUXbcn)"><g><g><ellipse vector-effect="non-scaling-stroke" cx="9.975201921467482" cy="13.095494574690902" rx="2.119828946079849" ry="1.8704373053645735" fill="rgb(255,255,255)"/><path d=" M 11.472 8.232 C 11.222 9.729 10.599 10.976 9.975 10.976 C 9.352 10.976 8.728 9.729 8.479 8.232 C 8.354 6.611 8.229 4.741 8.229 3.993 C 8.229 3.245 8.978 2.621 9.975 2.621 C 10.973 2.621 11.846 3.245 11.846 3.993 C 11.846 4.741 11.596 6.611 11.472 8.232 Z " fill="rgb(255,255,255)"/></g><path d=" M 18.579 1 L 1.371 1 C 0.249 1 -0.375 2.247 0.249 3.245 L 8.853 17.834 C 9.352 18.707 10.723 18.707 11.222 17.834 L 19.826 3.245 C 20.325 2.247 19.701 1 18.579 1 Z  M 9.975 14.467 C 9.102 14.467 8.354 13.844 8.354 13.095 C 8.354 12.223 9.102 11.599 9.975 11.599 C 10.848 11.599 11.596 12.223 11.596 12.971 C 11.596 13.844 10.848 14.467 9.975 14.467 Z  M 11.347 8.108 C 11.222 9.604 10.599 10.851 9.975 10.851 C 9.352 10.851 8.728 9.604 8.604 8.232 C 8.354 6.736 8.229 4.866 8.229 4.242 C 8.229 3.494 8.978 2.87 9.975 2.87 C 10.973 2.87 11.721 3.494 11.721 4.242 C 11.721 4.866 11.596 6.736 11.347 8.108 Z " fill="rgb(239,98,0)"/></g></g></svg>