<?xml version="1.0" encoding="UTF-8" standalone="no"?><!-- Generator: Gravit.io --><svg xmlns="http://www.w3.org/2000/svg" xmlns:xlink="http://www.w3.org/1999/xlink" style="isolation:isolate" viewBox="0 0 20 20" width="20pt" height="20pt"><defs><clipPath id="_clipPath_IZvbeKITy0E8vbOdqtctv5hqAcXagrk7"><rect width="20" height="20"/></clipPath></defs><g clip-path="url(#_clipPath_IZvbeKITy0E8vbOdqtctv5hqAcXagrk7)"><g><g><ellipse vector-effect="non-scaling-stroke" cx="10.005959068226618" cy="15.228420384159769" rx="2.1255145710682832" ry="1.8754540332955445" fill="rgb(0,0,0)"/><path d=" M 11.381 10.352 C 11.256 11.853 10.506 13.103 9.881 13.103 C 9.256 13.103 8.631 11.853 8.381 10.352 C 8.256 8.727 8.131 6.851 8.131 6.101 C 8.131 5.351 9.006 4.726 10.006 4.726 C 11.006 4.726 11.881 5.351 11.881 6.101 C 11.881 6.851 11.631 8.727 11.381 10.352 Z " fill="rgb(0,0,0)"/></g><path d=" M 19.633 15.604 L 11.631 2.225 C 10.756 0.725 9.256 0.725 8.381 2.225 L 0.379 15.604 C -0.497 17.104 0.129 18.354 1.879 18.354 L 18.008 18.354 C 19.758 18.354 20.509 17.104 19.633 15.604 Z  M 10.006 16.604 C 9.131 16.604 8.381 15.979 8.381 15.228 C 8.381 14.478 9.131 13.853 10.006 13.853 C 10.881 13.853 11.631 14.478 11.631 15.228 C 11.631 15.979 10.881 16.604 10.006 16.604 Z  M 11.381 10.352 C 11.256 11.728 10.631 12.978 10.006 12.978 C 9.381 12.978 8.756 11.728 8.631 10.352 C 8.381 8.852 8.256 7.101 8.256 6.351 C 8.256 5.601 9.006 4.976 10.006 4.976 C 11.006 4.976 11.756 5.601 11.756 6.351 C 11.756 7.101 11.631 8.852 11.381 10.352 Z " fill="rgb(255,204,0)"/></g></g></svg>