<?xml version="1.0" encoding="UTF-8" standalone="no"?><!-- Generator: Gravit.io --><svg xmlns="http://www.w3.org/2000/svg" xmlns:xlink="http://www.w3.org/1999/xlink" style="isolation:isolate" viewBox="0 0 20 20" width="20pt" height="20pt"><defs><clipPath id="_clipPath_ek8jUXqOXST1IvUGJZ87ZcNs39ZeP6X3"><rect width="20" height="20"/></clipPath></defs><g clip-path="url(#_clipPath_ek8jUXqOXST1IvUGJZ87ZcNs39ZeP6X3)"><g><circle vector-effect="non-scaling-stroke" cx="10" cy="10" r="8.75" fill="rgb(255,255,255)"/><path d=" M 14.125 0 L 5.875 0 L 0 5.875 L 0 14.125 L 5.875 20 L 14.125 20 L 20 14.125 L 20 5.875 L 14.125 0 Z  M 15.375 13.5 C 15.875 14 15.875 14.875 15.375 15.375 C 14.875 15.875 14 15.875 13.5 15.375 L 10.25 12.125 L 7 15.375 C 6.5 15.875 5.625 15.875 5.125 15.375 C 4.625 14.875 4.625 14 5.125 13.5 L 8.375 10.25 L 5 6.875 C 4.5 6.375 4.5 5.5 5 5 C 5.5 4.5 6.375 4.5 6.875 5 L 10.125 8.375 L 13.5 5 C 14 4.5 14.875 4.5 15.375 5 C 15.875 5.5 15.875 6.375 15.375 6.875 L 12 10.25 L 15.375 13.5 Z " fill="rgb(235,35,0)"/></g></g></svg>