<?xml version="1.0" encoding="UTF-8" standalone="no"?><!-- Generator: Gravit.io --><svg xmlns="http://www.w3.org/2000/svg" xmlns:xlink="http://www.w3.org/1999/xlink" style="isolation:isolate" viewBox="0 0 20 20" width="20pt" height="20pt"><defs><clipPath id="_clipPath_8aFVP6HwWlLASQjNnYlT8r3h5njhXTko"><rect width="20" height="20"/></clipPath></defs><g clip-path="url(#_clipPath_8aFVP6HwWlLASQjNnYlT8r3h5njhXTko)"><g><circle vector-effect="non-scaling-stroke" cx="10" cy="10" r="8.75" fill="rgb(255,255,255)"/><g><path d=" M 10 0 C 4.5 0 0 4.5 0 10 C 0 15.5 4.5 20 10 20 C 15.5 20 20 15.5 20 10 C 20 4.5 15.5 0 10 0 Z  M 16 6.625 L 10 14.625 C 9.75 14.875 9.5 15 9.25 15 C 9 15 8.625 14.875 8.5 14.75 L 4.125 10.625 C 3.875 10.375 3.75 10.125 3.75 9.875 C 3.75 9.625 3.875 9.375 4 9.125 C 4.25 8.875 4.5 8.75 4.75 8.75 C 5 8.75 5.25 8.875 5.5 9 L 9 12.375 L 14.375 5.375 C 14.75 4.875 15.375 4.875 15.875 5.125 C 16.25 5.5 16.375 6.25 16 6.625 Z " fill="rgb(90,158,70)"/></g></g></g></svg>