<?xml version="1.0" encoding="UTF-8" standalone="no"?><!-- Generator: Gravit.io --><svg xmlns="http://www.w3.org/2000/svg" xmlns:xlink="http://www.w3.org/1999/xlink" style="isolation:isolate" viewBox="0 0 20 20" width="20pt" height="20pt"><defs><clipPath id="_clipPath_Sz3C9QQMcrj8WQ0sMBhoxNVdlR9v40GQ"><rect width="20" height="20"/></clipPath></defs><g clip-path="url(#_clipPath_Sz3C9QQMcrj8WQ0sMBhoxNVdlR9v40GQ)"><g><circle vector-effect="non-scaling-stroke" cx="10" cy="10" r="8.75" fill="rgb(255,255,255)"/><path d=" M 10 0 C 4.5 0 0 4.5 0 10 C 0 15.5 4.5 20 10 20 C 15.5 20 20 15.5 20 10 C 20 4.5 15.5 0 10 0 Z  M 4.625 11.625 C 3.625 11.625 2.875 10.875 2.875 10 C 2.875 9.125 3.625 8.375 4.5 8.375 C 5.375 8.375 6.25 9.125 6.25 10 C 6.25 10.875 5.5 11.625 4.625 11.625 Z  M 10 11.625 C 9.125 11.625 8.375 10.875 8.375 10 C 8.375 9.125 9.125 8.375 10 8.375 C 10.875 8.375 11.625 9.125 11.625 10 C 11.625 10.875 10.875 11.625 10 11.625 Z  M 15.375 11.625 C 14.5 11.625 13.75 10.875 13.75 10 C 13.75 9.125 14.5 8.375 15.375 8.375 C 16.25 8.375 17 9.125 17 10 C 17.125 10.875 16.375 11.625 15.375 11.625 Z " fill="rgb(67,138,255)"/></g></g></svg>