<?xml version="1.0" encoding="UTF-8" standalone="no"?><!-- Generator: Gravit.io --><svg xmlns="http://www.w3.org/2000/svg" xmlns:xlink="http://www.w3.org/1999/xlink" style="isolation:isolate" viewBox="0 0 20 20" width="20pt" height="20pt"><defs><clipPath id="_clipPath_cPxdnrYnyEHNeKgMtbbchDIlAgzLuKrS"><rect width="20" height="20"/></clipPath></defs><g clip-path="url(#_clipPath_cPxdnrYnyEHNeKgMtbbchDIlAgzLuKrS)"><g><path d=" M 16.125 11 L 10 17.125 C 9.5 17.625 8.625 17.625 8.125 17.125 C 7.625 16.625 7.625 15.75 8.125 15.25 L 11.875 11.625 L 4.5 11.625 C 3.75 11.625 3.125 10.75 3.125 10 C 3.125 9.25 3.75 8.375 4.5 8.375 L 11.875 8.375 L 8.25 4.75 C 7.75 4.25 7.75 3.375 8.25 2.875 C 8.75 2.375 9.625 2.375 10.125 2.875 L 16.25 9.125 C 16.75 9.625 16.75 10.375 16.125 11 Z " fill="rgb(255,255,255)"/><path d=" M 20 10 C 20 4.5 15.5 0 10 0 C 4.5 0 0 4.5 0 10 C 0 15.5 4.5 20 10 20 C 15.5 20 20 15.5 20 10 Z  M 15.875 10.75 L 11 15.625 C 10.625 16 9.875 16 9.5 15.625 C 9.125 15.25 9.125 14.5 9.5 14.125 L 12.5 11.25 L 4.75 11.25 C 4.25 11.25 3.75 10.625 3.75 10 C 3.75 9.375 4.25 8.75 4.75 8.75 L 12.5 8.75 L 9.625 5.875 C 9.25 5.5 9.25 4.75 9.625 4.375 C 10 4 10.75 4 11.125 4.375 L 16 9.25 C 16.375 9.75 16.375 10.375 15.875 10.75 Z " fill="rgb(90,158,70)"/></g></g></svg>