<?xml version="1.0" encoding="UTF-8" standalone="no"?><!-- Generator: Gravit.io --><svg xmlns="http://www.w3.org/2000/svg" xmlns:xlink="http://www.w3.org/1999/xlink" style="isolation:isolate" viewBox="0 0 20 20" width="20pt" height="20pt"><defs><clipPath id="_clipPath_CiCtfwyKSf5rHhK0izNrTklL554v3T5X"><rect width="20" height="20"/></clipPath></defs><g clip-path="url(#_clipPath_CiCtfwyKSf5rHhK0izNrTklL554v3T5X)"><clipPath id="_clipPath_hfLuvq3fVIYxmUZiUzaHT0F3xnurS3B2"><rect x="0" y="0" width="20" height="20" transform="matrix(1,0,0,1,0,0)" fill="rgb(255,255,255)"/></clipPath><g clip-path="url(#_clipPath_hfLuvq3fVIYxmUZiUzaHT0F3xnurS3B2)"><g><path d=" M 10 0 C 4.477 0 0 4.477 0 10 C 0 15.523 4.477 20 10 20 C 15.523 20 20 15.523 20 10 C 20 4.477 15.523 0 10 0 Z  M 12.673 13.506 C 12.51 13.669 12.297 13.75 12.083 13.75 C 11.87 13.75 11.657 13.669 11.494 13.506 L 9.167 11.178 L 9.167 5.833 C 9.167 5.373 9.54 5 10 5 C 10.46 5 10.833 5.373 10.833 5.833 L 10.833 10.488 L 12.673 12.327 C 12.998 12.653 12.998 13.18 12.673 13.506 Z " fill="rgb(67,138,255)"/></g></g></g></svg>