<?xml version="1.0" encoding="UTF-8" standalone="no"?><!-- Generator: Gravit.io --><svg xmlns="http://www.w3.org/2000/svg" xmlns:xlink="http://www.w3.org/1999/xlink" style="isolation:isolate" viewBox="0 0 20 20" width="20pt" height="20pt"><defs><clipPath id="_clipPath_hQ05ie5Ua2pDwLEyf4G95InxzmXst5gl"><rect width="20" height="20"/></clipPath></defs><g clip-path="url(#_clipPath_hQ05ie5Ua2pDwLEyf4G95InxzmXst5gl)"><path d=" M 6.57 12.708 C 5.874 13.409 4.909 13.844 3.844 13.844 C 1.722 13.844 0 12.121 0 10 L 0 10 C 0 7.879 1.722 6.156 3.844 6.156 C 5.001 6.156 6.04 6.669 6.745 7.48 L 12.415 4.728 C 12.348 4.444 12.312 4.148 12.313 3.844 L 12.313 3.844 L 12.313 3.844 C 12.312 1.722 14.035 0 16.156 0 C 18.278 0 20 1.722 20 3.844 C 20 5.965 18.278 7.688 16.156 7.688 C 14.972 7.688 13.913 7.151 13.207 6.308 L 13.207 6.308 L 7.568 9.045 C 7.646 9.35 7.688 9.67 7.688 10 C 7.688 10.417 7.621 10.818 7.498 11.194 L 13.053 13.889 C 13.752 12.934 14.882 12.313 16.156 12.313 C 18.278 12.313 20 14.035 20 16.156 C 20 18.278 18.278 20 16.156 20 C 14.035 20 12.312 18.278 12.313 16.156 L 12.313 16.156 L 12.313 16.156 L 12.313 16.156 C 12.313 15.94 12.33 15.727 12.365 15.521 L 6.57 12.708 Z " fill-rule="evenodd" fill="rgb(141,141,141)"/></g></svg>