<?xml version="1.0" encoding="UTF-8" standalone="no"?><!-- Generator: Gravit.io --><svg xmlns="http://www.w3.org/2000/svg" xmlns:xlink="http://www.w3.org/1999/xlink" style="isolation:isolate" viewBox="0 0 20 20" width="20pt" height="20pt"><defs><clipPath id="_clipPath_kSrYicl9NP28SstxkwMPMudWxtZqO2oo"><rect width="20" height="20"/></clipPath></defs><g clip-path="url(#_clipPath_kSrYicl9NP28SstxkwMPMudWxtZqO2oo)"><g><circle vector-effect="non-scaling-stroke" cx="10.050274294670844" cy="10.050274294670844" r="8.78840125391849" fill="rgb(255,255,255)"/><g><path d=" M 2.894 2.894 C -0.998 6.786 -0.998 13.189 2.894 17.081 C 6.786 20.973 13.189 20.973 17.081 17.081 C 20.973 13.189 20.973 6.786 17.081 2.894 C 13.189 -0.998 6.912 -0.998 2.894 2.894 Z  M 14.193 7.665 L 7.665 14.193 C 7.163 14.696 6.409 14.696 5.907 14.193 C 5.405 13.691 5.405 12.938 5.907 12.436 L 12.436 5.907 C 12.938 5.405 13.691 5.405 14.193 5.907 C 14.696 6.409 14.696 7.163 14.193 7.665 Z " fill="rgb(141,141,141)"/></g></g></g></svg>