<?xml version="1.0" standalone="no"?><!-- Generator: Gravit.io --><svg xmlns="http://www.w3.org/2000/svg" xmlns:xlink="http://www.w3.org/1999/xlink" style="isolation:isolate" viewBox="0 0 41 35.43" width="41" height="35.43"><defs><clipPath id="_clipPath_eofoexxJSfESgL0cF5CbnaEPPaEVuND6"><rect width="41" height="35.43"/></clipPath></defs><g clip-path="url(#_clipPath_eofoexxJSfESgL0cF5CbnaEPPaEVuND6)"><clipPath id="_clipPath_CcTBW1cypbHxSpbxoJsLdnADkUHhN3HI"><rect x="0" y="0" width="41" height="35.43" transform="matrix(1,0,0,1,0,0)" fill="rgb(255,255,255)"/></clipPath><g clip-path="url(#_clipPath_CcTBW1cypbHxSpbxoJsLdnADkUHhN3HI)"><g><path d=" M 9.747 0 L 31.253 0 C 36.633 0 41 4.367 41 9.747 L 41 25.683 C 41 31.062 36.633 35.43 31.253 35.43 L 9.747 35.43 C 4.367 35.43 0 31.062 0 25.683 L 0 9.747 C 0 4.367 4.367 0 9.747 0 Z " fill="rgb(255,95,48)"/><g><clipPath id="_clipPath_WLkyjl0RfhXJUGQHVS45BeDMKUwyAiTn"><path d=" M 2.603 0 L 39.372 0 L 39.372 35.43 L 2.603 35.43 L 2.603 0 Z " fill="rgb(255,255,255)"/></clipPath><g clip-path="url(#_clipPath_WLkyjl0RfhXJUGQHVS45BeDMKUwyAiTn)"><g><g><g><g><clipPath id="_clipPath_A7kxeflbByIAgwEvWHSXR726cm01w7vD"><path d=" M -2.494 -14.924 L 171.081 -14.924 L 171.081 54.298 L -2.494 54.298 L -2.494 -14.924 Z " fill="rgb(255,255,255)"/></clipPath><g clip-path="url(#_clipPath_A7kxeflbByIAgwEvWHSXR726cm01w7vD)"><g><g><g><g opacity="0"><path d=" M 171.081 -14.924 L -2.494 -14.924 L -2.494 54.298 L 171.081 54.298 L 171.081 -14.924 Z " fill-rule="evenodd" fill="rgb(35,31,32)"/></g></g></g></g></g></g></g><g><path d=" M 27.298 5.792 C 29.194 7.883 31.604 11.17 31.71 14.404 C 31.966 18.937 28.818 24.099 22.52 24.608 C 17.062 25.049 13.698 20.772 13.565 17.692 C 13.166 12.552 17.009 10.13 20.367 10.225 C 25.8 10.342 27.291 16.05 27.519 17.993 C 29.855 13.993 27.409 4.748 18.642 4.811 C 14.011 4.784 7.111 8.81 7.273 17.666 C 7.439 26.67 14.369 30.949 20.745 30.949 C 28.093 30.949 33.808 24.939 33.981 18.162 C 34.159 11.22 30.098 7.716 27.298 5.792 Z  M 18.047 7.604 C 13.069 8.59 10.387 13.344 12.548 18.445 C 9.997 16.409 9.826 12.694 9.848 11.053 C 10.69 9.214 13.751 5.524 18.847 5.435 C 23.317 5.375 25.857 7.756 26.772 11.94 C 24.314 7.207 19.714 7.273 18.047 7.604 L 18.047 7.604 Z  M 18.956 28.991 C 6.041 27.734 7.118 15.123 9.248 12.017 C 8.508 16.048 8.326 24.989 17.947 27.02 C 24.33 28.367 31.286 24.436 32.867 17.388 C 32.14 23.67 25.136 29.592 18.956 28.991 L 18.956 28.991 Z " fill-rule="evenodd" fill="rgb(255,255,255)"/></g></g></g></g></g></g></g></g></svg>