<?xml version="1.0" encoding="UTF-8" standalone="no"?><!-- Generator: Gravit.io --><svg xmlns="http://www.w3.org/2000/svg" xmlns:xlink="http://www.w3.org/1999/xlink" style="isolation:isolate" viewBox="0 0 20 20" width="20pt" height="20pt"><defs><clipPath id="_clipPath_dNaLpIsrHUlihkmlGzLX1VU5LKpGvzC9"><rect width="20" height="20"/></clipPath></defs><g clip-path="url(#_clipPath_dNaLpIsrHUlihkmlGzLX1VU5LKpGvzC9)"><g><g><ellipse vector-effect="non-scaling-stroke" cx="10.022663704382913" cy="14.524408513767245" rx="2.1258239377648245" ry="1.8757270039101392" fill="rgb(255,255,255)"/><path d=" M 11.523 9.648 C 11.273 11.148 10.648 12.399 10.023 12.399 C 9.397 12.399 8.772 11.148 8.522 9.648 C 8.397 8.022 8.272 6.146 8.272 5.396 C 8.272 4.646 9.022 4.02 10.023 4.02 C 11.023 4.02 11.898 4.646 11.898 5.396 C 11.898 6.146 11.648 8.022 11.523 9.648 Z " fill="rgb(255,255,255)"/></g><path d=" M 19.651 9.022 L 17.901 7.272 L 12.023 1.394 L 11.023 0.394 C 10.398 -0.231 9.522 -0.231 9.022 0.394 L 8.022 1.394 L 2.27 7.147 L 0.394 9.022 C -0.231 9.648 -0.231 10.523 0.394 11.023 L 8.897 19.526 C 9.522 20.152 10.398 20.152 10.898 19.526 L 19.401 11.023 C 20.152 10.523 20.152 9.522 19.651 9.022 Z  M 10.023 15.9 C 9.147 15.9 8.397 15.275 8.397 14.524 C 8.397 13.774 9.147 13.149 10.023 13.149 C 10.898 13.149 11.648 13.774 11.648 14.524 C 11.648 15.15 10.898 15.9 10.023 15.9 Z  M 8.272 5.521 C 8.272 4.771 9.022 4.145 10.023 4.145 C 11.023 4.145 11.773 4.771 11.773 5.521 C 11.773 6.271 11.648 8.022 11.398 9.522 C 11.273 11.023 10.648 12.148 10.023 12.148 C 9.397 12.148 8.772 10.898 8.647 9.522 C 8.397 8.022 8.272 6.271 8.272 5.521 Z " fill="rgb(255,204,0)"/></g></g></svg>